<?xml version="1.0" standalone="no"?>
<!DOCTYPE svg PUBLIC "-//W3C//DTD SVG 20010904//EN"
 "http://www.w3.org/TR/2001/REC-SVG-20010904/DTD/svg10.dtd">
<svg version="1.0" xmlns="http://www.w3.org/2000/svg"
 width="512.000000pt" height="512.000000pt" viewBox="0 0 512.000000 512.000000"
 preserveAspectRatio="xMidYMid meet">
<metadata>
Created by potrace 1.14, written by Peter Selinger 2001-2017
</metadata>
<g transform="translate(0.000000,512.000000) scale(0.100000,-0.100000)"
fill="#000000" stroke="none">
<path d="M132 5112 c-36 -11 -91 -60 -112 -102 -20 -39 -20 -60 -20 -2447 0
-2323 1 -2409 19 -2448 23 -49 65 -88 110 -104 25 -8 670 -11 2438 -11 2346 0
2405 0 2441 19 47 25 86 67 101 110 8 25 11 669 11 2435 0 2313 -1 2402 -19
2441 -22 48 -54 79 -103 100 -33 13 -293 15 -2440 14 -1322 -1 -2413 -4 -2426
-7z m1440 -402 c3 -13 2 -1128 -1 -1155 -1 -11 -1148 -14 -1166 -3 -7 4 -10
209 -9 590 1 320 2 583 3 583 0 0 264 0 585 0 513 0 585 -2 588 -15z m1573
-575 l0 -590 -585 0 -585 0 -3 580 c-1 319 0 585 2 590 2 7 205 10 587 10
l584 0 0 -590z m1580 7 c0 -380 -3 -586 -10 -590 -17 -11 -1165 -8 -1166 3 -5
46 -3 1161 2 1165 4 3 270 5 591 5 l583 0 0 -583z m-3154 -999 c5 -29 3 -1157
-2 -1164 -3 -5 -245 -8 -590 -7 l-584 3 -1 580 c0 319 1 583 3 588 2 4 267 7
589 7 321 0 585 -3 585 -7z m1579 -583 l0 -590 -590 0 -590 0 0 590 0 590 590
0 590 0 0 -590z m1575 0 l0 -585 -584 -3 c-345 -1 -587 2 -590 7 -5 7 -6 1134
-2 1164 1 4 265 6 588 5 l588 -3 0 -585z m-3150 -1573 c0 -323 -2 -588 -5
-588 -3 -1 -265 -2 -583 -3 -379 -1 -581 2 -585 9 -9 14 -10 1159 -1 1165 4 3
270 5 590 5 l583 0 1 -588z m1573 -2 l-3 -590 -585 0 -585 0 -3 580 c-1 319 0
585 2 590 2 7 208 10 590 10 l586 0 -2 -590z m1577 7 c0 -321 -2 -587 -5 -591
-7 -9 -1163 -9 -1170 0 -4 6 -5 1151 -1 1169 1 3 265 5 588 5 l588 0 0 -583z"/>
</g>
</svg>
